<svg width="375" height="812" viewBox="0 0 375 812" fill="none" xmlns="http://www.w3.org/2000/svg">
<rect width="375" height="812" fill="#514EB6"/>
<circle cx="188" cy="312" r="44" fill="white" fill-opacity="0.2"/>
<g clip-path="url(#clip0_2_2392)">
<path d="M197.963 289.944L167.741 298.042C165.657 298.601 164.417 300.749 164.975 302.833L172.061 329.277C172.619 331.361 174.768 332.601 176.851 332.043L207.074 323.945C209.157 323.387 210.398 321.238 209.839 319.155L202.754 292.71C202.195 290.626 200.047 289.386 197.963 289.944ZM201.002 301.277C201 301.278 201 301.278 201.002 301.277L200.124 301.513L193.062 295.307L198.976 293.722L201.002 301.277ZM195.537 314.889L186.666 323.339L183.629 312.006L195.537 314.889ZM190.679 304.043L183.617 297.837L188.521 296.524L195.583 302.729L190.679 304.043V304.043ZM186.138 305.26L181.235 306.574L174.172 300.368L179.076 299.054L186.138 305.26ZM168.753 301.82L169.631 301.585L176.694 307.791L170.778 309.376L168.753 301.82Z" fill="#FEFEFE"/>
</g>
<path d="M107.112 405V381.16H111.912L120.84 393H118.6L127.272 381.16H132.072V405H127.112V386.632L129.096 387.08L119.912 398.92H119.272L110.408 387.08L112.072 386.632V405H107.112ZM144.78 405.384C143.052 405.384 141.473 404.989 140.043 404.2C138.635 403.411 137.505 402.333 136.651 400.968C135.819 399.581 135.403 398.013 135.403 396.264C135.403 394.493 135.819 392.925 136.651 391.56C137.505 390.195 138.635 389.117 140.043 388.328C141.473 387.539 143.052 387.144 144.78 387.144C146.508 387.144 148.076 387.539 149.484 388.328C150.892 389.117 152.012 390.195 152.844 391.56C153.697 392.925 154.124 394.493 154.124 396.264C154.124 398.013 153.697 399.581 152.844 400.968C152.012 402.333 150.892 403.411 149.484 404.2C148.076 404.989 146.508 405.384 144.78 405.384ZM144.78 401.064C145.654 401.064 146.412 400.861 147.052 400.456C147.713 400.051 148.225 399.485 148.588 398.76C148.972 398.035 149.164 397.203 149.164 396.264C149.164 395.325 148.972 394.504 148.588 393.8C148.225 393.075 147.713 392.509 147.052 392.104C146.412 391.677 145.654 391.464 144.78 391.464C143.905 391.464 143.137 391.677 142.476 392.104C141.814 392.509 141.292 393.075 140.908 393.8C140.545 394.504 140.364 395.325 140.364 396.264C140.364 397.203 140.545 398.035 140.908 398.76C141.292 399.485 141.814 400.051 142.476 400.456C143.137 400.861 143.905 401.064 144.78 401.064ZM162.271 405L155.391 387.528H160.575L165.343 400.744H163.359L168.127 387.528H173.311L166.431 405H162.271ZM175.584 405V387.528H180.384V405H175.584ZM175.584 385.96V381.16H180.384V385.96H175.584ZM192.472 405.384C190.616 405.384 189.006 404.979 187.64 404.168C186.275 403.336 185.219 402.227 184.472 400.84C183.726 399.453 183.352 397.917 183.352 396.232C183.352 394.483 183.736 392.925 184.504 391.56C185.294 390.195 186.35 389.117 187.672 388.328C188.995 387.539 190.488 387.144 192.152 387.144C193.539 387.144 194.766 387.368 195.832 387.816C196.899 388.243 197.795 388.851 198.52 389.64C199.267 390.429 199.832 391.347 200.216 392.392C200.6 393.416 200.792 394.536 200.792 395.752C200.792 396.093 200.771 396.435 200.728 396.776C200.707 397.096 200.654 397.373 200.568 397.608H187.48V394.088H197.848L195.576 395.752C195.79 394.835 195.779 394.024 195.544 393.32C195.31 392.595 194.894 392.029 194.296 391.624C193.72 391.197 193.006 390.984 192.152 390.984C191.32 390.984 190.606 391.187 190.008 391.592C189.411 391.997 188.963 392.595 188.664 393.384C188.366 394.173 188.248 395.133 188.312 396.264C188.227 397.245 188.344 398.109 188.664 398.856C188.984 399.603 189.475 400.189 190.136 400.616C190.798 401.021 191.598 401.224 192.536 401.224C193.39 401.224 194.115 401.053 194.712 400.712C195.331 400.371 195.811 399.901 196.152 399.304L199.992 401.128C199.651 401.981 199.107 402.728 198.36 403.368C197.635 404.008 196.771 404.509 195.768 404.872C194.766 405.213 193.667 405.384 192.472 405.384ZM203.779 405V387.528H208.259V391.784L207.779 391.08C208.035 389.736 208.653 388.744 209.635 388.104C210.616 387.464 211.789 387.144 213.155 387.144C214.605 387.144 215.875 387.517 216.963 388.264C218.072 388.989 218.765 389.971 219.043 391.208L217.667 391.336C218.243 389.907 219.064 388.851 220.131 388.168C221.197 387.485 222.445 387.144 223.875 387.144C225.133 387.144 226.243 387.421 227.203 387.976C228.184 388.531 228.952 389.309 229.507 390.312C230.061 391.293 230.339 392.445 230.339 393.768V405H225.539V394.792C225.539 394.109 225.411 393.523 225.155 393.032C224.92 392.541 224.579 392.157 224.131 391.88C223.683 391.603 223.139 391.464 222.499 391.464C221.88 391.464 221.336 391.603 220.867 391.88C220.419 392.157 220.067 392.541 219.811 393.032C219.576 393.523 219.459 394.109 219.459 394.792V405H214.659V394.792C214.659 394.109 214.531 393.523 214.275 393.032C214.04 392.541 213.699 392.157 213.251 391.88C212.803 391.603 212.259 391.464 211.619 391.464C211 391.464 210.456 391.603 209.987 391.88C209.539 392.157 209.187 392.541 208.931 393.032C208.696 393.523 208.579 394.109 208.579 394.792V405H203.779ZM239.065 405.384C237.807 405.384 236.719 405.181 235.801 404.776C234.884 404.371 234.18 403.795 233.689 403.048C233.199 402.28 232.953 401.373 232.953 400.328C232.953 399.347 233.177 398.483 233.625 397.736C234.073 396.968 234.756 396.328 235.673 395.816C236.612 395.304 237.775 394.941 239.161 394.728L244.505 393.864V397.384L240.025 398.184C239.343 398.312 238.82 398.536 238.457 398.856C238.095 399.155 237.913 399.592 237.913 400.168C237.913 400.701 238.116 401.117 238.521 401.416C238.927 401.715 239.428 401.864 240.025 401.864C240.815 401.864 241.508 401.693 242.105 401.352C242.703 401.011 243.161 400.552 243.481 399.976C243.823 399.379 243.993 398.728 243.993 398.024V393.48C243.993 392.819 243.727 392.264 243.193 391.816C242.681 391.368 241.977 391.144 241.081 391.144C240.228 391.144 239.471 391.379 238.809 391.848C238.169 392.317 237.7 392.936 237.401 393.704L233.561 391.88C233.903 390.899 234.447 390.056 235.193 389.352C235.94 388.648 236.836 388.104 237.881 387.72C238.927 387.336 240.068 387.144 241.305 387.144C242.777 387.144 244.079 387.411 245.209 387.944C246.34 388.477 247.215 389.224 247.833 390.184C248.473 391.123 248.793 392.221 248.793 393.48V405H244.313V402.184L245.401 401.992C244.889 402.76 244.324 403.4 243.705 403.912C243.087 404.403 242.393 404.765 241.625 405C240.857 405.256 240.004 405.384 239.065 405.384ZM251.098 405L257.21 396.232L251.066 387.528H256.634L261.242 394.312H258.81L263.418 387.528H268.986L262.842 396.232L268.922 405H263.386L258.874 398.216H261.178L256.666 405H251.098Z" fill="#FEFEFE"/>
<defs>
<clipPath id="clip0_2_2392">
<rect width="46.9333" height="46.9333" fill="white" transform="translate(158.666 294.4) rotate(-15)"/>
</clipPath>
</defs>
</svg>
