<svg width="23" height="19" viewBox="0 0 23 19" fill="none" xmlns="http://www.w3.org/2000/svg">
<path d="M8.46173 16.4106L8.92605 15.8216L8.46173 16.4106ZM11.5 3.00039L10.9596 3.52049C11.101 3.66738 11.2961 3.75039 11.5 3.75039C11.7039 3.75039 11.899 3.66738 12.0404 3.52049L11.5 3.00039ZM14.5383 16.4106L15.0026 16.9996L14.5383 16.4106ZM8.92605 15.8216C7.41039 14.6268 5.75307 13.46 4.43829 11.9795C3.14922 10.528 2.25 8.83425 2.25 6.63685H0.75C0.75 9.30239 1.8605 11.3358 3.31672 12.9756C4.74723 14.5864 6.57077 15.875 7.99742 16.9996L8.92605 15.8216ZM2.25 6.63685C2.25 4.48599 3.46537 2.68228 5.12436 1.92395C6.73607 1.18723 8.90166 1.38233 10.9596 3.52049L12.0404 2.48029C9.5985 -0.0567229 6.76409 -0.474858 4.50076 0.559716C2.28471 1.57268 0.75 3.92479 0.75 6.63685H2.25ZM7.99742 16.9996C8.50965 17.4034 9.05954 17.834 9.61682 18.1597C10.1739 18.4852 10.8096 18.7498 11.5 18.7498V17.2498C11.1904 17.2498 10.8261 17.129 10.3736 16.8646C9.92132 16.6003 9.45208 16.2363 8.92605 15.8216L7.99742 16.9996ZM15.0026 16.9996C16.4292 15.875 18.2528 14.5864 19.6833 12.9756C21.1395 11.3358 22.25 9.30239 22.25 6.63685H20.75C20.75 8.83425 19.8508 10.528 18.5617 11.9795C17.2469 13.46 15.5896 14.6268 14.074 15.8216L15.0026 16.9996ZM22.25 6.63685C22.25 3.92479 20.7153 1.57268 18.4992 0.559716C16.2359 -0.474858 13.4015 -0.0567229 10.9596 2.48029L12.0404 3.52049C14.0983 1.38233 16.2639 1.18723 17.8756 1.92395C19.5346 2.68228 20.75 4.48599 20.75 6.63685H22.25ZM14.074 15.8216C13.5479 16.2363 13.0787 16.6003 12.6264 16.8646C12.1739 17.129 11.8096 17.2498 11.5 17.2498V18.7498C12.1904 18.7498 12.8261 18.4852 13.3832 18.1597C13.9405 17.834 14.4903 17.4034 15.0026 16.9996L14.074 15.8216Z" fill="#7C7C7B"/>
</svg>
