<svg width="10" height="10" viewBox="0 0 10 10" fill="none" xmlns="http://www.w3.org/2000/svg">
<path d="M6.05745 5.00014L9.28245 1.78264C9.42368 1.64141 9.50302 1.44987 9.50302 1.25014C9.50302 1.05041 9.42368 0.858867 9.28245 0.717639C9.14123 0.576411 8.94968 0.49707 8.74995 0.49707C8.55023 0.49707 8.35868 0.576411 8.21745 0.717639L4.99995 3.94264L1.78245 0.717639C1.64123 0.576411 1.44968 0.49707 1.24995 0.49707C1.05023 0.49707 0.858682 0.576411 0.717454 0.717639C0.576226 0.858867 0.496885 1.05041 0.496885 1.25014C0.496885 1.44987 0.576226 1.64141 0.717454 1.78264L3.94245 5.00014L0.717454 8.21764C0.647158 8.28736 0.591362 8.37031 0.553286 8.46171C0.515209 8.5531 0.495605 8.65113 0.495605 8.75014C0.495605 8.84915 0.515209 8.94718 0.553286 9.03857C0.591362 9.12997 0.647158 9.21292 0.717454 9.28264C0.787176 9.35293 0.870127 9.40873 0.961522 9.44681C1.05292 9.48489 1.15095 9.50449 1.24995 9.50449C1.34896 9.50449 1.44699 9.48489 1.53839 9.44681C1.62978 9.40873 1.71273 9.35293 1.78245 9.28264L4.99995 6.05764L8.21745 9.28264C8.28718 9.35293 8.37013 9.40873 8.46152 9.44681C8.55292 9.48489 8.65095 9.50449 8.74995 9.50449C8.84896 9.50449 8.94699 9.48489 9.03839 9.44681C9.12978 9.40873 9.21273 9.35293 9.28245 9.28264C9.35275 9.21292 9.40855 9.12997 9.44662 9.03857C9.4847 8.94718 9.5043 8.84915 9.5043 8.75014C9.5043 8.65113 9.4847 8.5531 9.44662 8.46171C9.40855 8.37031 9.35275 8.28736 9.28245 8.21764L6.05745 5.00014Z" fill="#111111"/>
</svg>
