<svg width="48" height="49" viewBox="0 0 48 49" fill="none" xmlns="http://www.w3.org/2000/svg">
<circle cx="24" cy="24.5" r="24" fill="#514EB6"/>
<path d="M21.1348 33.2733V30.2156C21.1348 29.4351 21.7722 28.8023 22.5584 28.8023H25.4326C25.8102 28.8023 26.1723 28.9512 26.4393 29.2163C26.7063 29.4813 26.8563 29.8408 26.8563 30.2156V33.2733C26.8539 33.5978 26.9821 33.9099 27.2124 34.1402C27.4427 34.3705 27.7561 34.5 28.0829 34.5H30.0438C30.9596 34.5023 31.8388 34.1428 32.4872 33.5008C33.1356 32.8588 33.5 31.987 33.5 31.0778V22.3669C33.5 21.6325 33.1721 20.9358 32.6046 20.4647L25.934 15.1759C24.7737 14.2486 23.1111 14.2785 21.9854 15.247L15.467 20.4647C14.8727 20.922 14.5176 21.6206 14.5 22.3669V31.0689C14.5 32.9639 16.0474 34.5 17.9562 34.5H19.8723C20.5512 34.5 21.103 33.9562 21.1079 33.2822L21.1348 33.2733Z" fill="#FEFEFE"/>
</svg>
