<svg width="18" height="18" viewBox="0 0 18 18" fill="none" xmlns="http://www.w3.org/2000/svg">
<path d="M10.0575 9.00014L13.2825 5.78264C13.4237 5.64141 13.503 5.44987 13.503 5.25014C13.503 5.05041 13.4237 4.85887 13.2825 4.71764C13.1412 4.57641 12.9497 4.49707 12.75 4.49707C12.5502 4.49707 12.3587 4.57641 12.2175 4.71764L8.99995 7.94264L5.78245 4.71764C5.64123 4.57641 5.44968 4.49707 5.24995 4.49707C5.05023 4.49707 4.85868 4.57641 4.71745 4.71764C4.57623 4.85887 4.49689 5.05041 4.49689 5.25014C4.49689 5.44987 4.57623 5.64141 4.71745 5.78264L7.94245 9.00014L4.71745 12.2176C4.64716 12.2874 4.59136 12.3703 4.55329 12.4617C4.51521 12.5531 4.49561 12.6511 4.49561 12.7501C4.49561 12.8491 4.51521 12.9472 4.55329 13.0386C4.59136 13.13 4.64716 13.2129 4.71745 13.2826C4.78718 13.3529 4.87013 13.4087 4.96152 13.4468C5.05292 13.4849 5.15095 13.5045 5.24995 13.5045C5.34896 13.5045 5.44699 13.4849 5.53839 13.4468C5.62978 13.4087 5.71273 13.3529 5.78245 13.2826L8.99995 10.0576L12.2175 13.2826C12.2872 13.3529 12.3701 13.4087 12.4615 13.4468C12.5529 13.4849 12.6509 13.5045 12.75 13.5045C12.849 13.5045 12.947 13.4849 13.0384 13.4468C13.1298 13.4087 13.2127 13.3529 13.2825 13.2826C13.3527 13.2129 13.4085 13.13 13.4466 13.0386C13.4847 12.9472 13.5043 12.8491 13.5043 12.7501C13.5043 12.6511 13.4847 12.5531 13.4466 12.4617C13.4085 12.3703 13.3527 12.2874 13.2825 12.2176L10.0575 9.00014Z" fill="#111111"/>
</svg>
