<svg width="14" height="14" viewBox="0 0 14 14" fill="none" xmlns="http://www.w3.org/2000/svg">
<path d="M7.00065 0.333496C5.68211 0.333496 4.39318 0.724489 3.29685 1.45703C2.20052 2.18957 1.34604 3.23077 0.841457 4.44894C0.336873 5.66711 0.204851 7.00756 0.462086 8.30077C0.71932 9.59397 1.35426 10.7819 2.28661 11.7142C3.21896 12.6466 4.40685 13.2815 5.70005 13.5387C6.99326 13.796 8.3337 13.6639 9.55188 13.1594C10.7701 12.6548 11.8112 11.8003 12.5438 10.704C13.2763 9.60764 13.6673 8.31871 13.6673 7.00016C13.6673 6.12468 13.4949 5.25778 13.1599 4.44894C12.8248 3.6401 12.3338 2.90517 11.7147 2.28612C11.0956 1.66706 10.3607 1.176 9.55188 0.840966C8.74304 0.505935 7.87613 0.333496 7.00065 0.333496ZM9.66732 7.66683H7.00065C6.82384 7.66683 6.65427 7.59659 6.52925 7.47157C6.40423 7.34654 6.33399 7.17697 6.33399 7.00016V4.3335C6.33399 4.15669 6.40423 3.98712 6.52925 3.86209C6.65427 3.73707 6.82384 3.66683 7.00065 3.66683C7.17746 3.66683 7.34703 3.73707 7.47206 3.86209C7.59708 3.98712 7.66732 4.15669 7.66732 4.3335V6.3335H9.66732C9.84413 6.3335 10.0137 6.40373 10.1387 6.52876C10.2637 6.65378 10.334 6.82335 10.334 7.00016C10.334 7.17697 10.2637 7.34654 10.1387 7.47157C10.0137 7.59659 9.84413 7.66683 9.66732 7.66683Z" fill="#F6F8FE"/>
</svg>
