<svg width="12" height="14" viewBox="0 0 12 14" fill="none" xmlns="http://www.w3.org/2000/svg">
<path d="M10 1.66683H9.33333V1.00016C9.33333 0.823352 9.2631 0.653782 9.13807 0.528758C9.01305 0.403734 8.84348 0.333496 8.66667 0.333496C8.48986 0.333496 8.32029 0.403734 8.19526 0.528758C8.07024 0.653782 8 0.823352 8 1.00016V1.66683H4V1.00016C4 0.823352 3.92976 0.653782 3.80474 0.528758C3.67971 0.403734 3.51014 0.333496 3.33333 0.333496C3.15652 0.333496 2.98695 0.403734 2.86193 0.528758C2.7369 0.653782 2.66667 0.823352 2.66667 1.00016V1.66683H2C1.46957 1.66683 0.960859 1.87754 0.585787 2.25262C0.210714 2.62769 0 3.1364 0 3.66683V11.6668C0 12.1973 0.210714 12.706 0.585787 13.081C0.960859 13.4561 1.46957 13.6668 2 13.6668H10C10.5304 13.6668 11.0391 13.4561 11.4142 13.081C11.7893 12.706 12 12.1973 12 11.6668V3.66683C12 3.1364 11.7893 2.62769 11.4142 2.25262C11.0391 1.87754 10.5304 1.66683 10 1.66683ZM3.33333 10.3335C3.20148 10.3335 3.07259 10.2944 2.96295 10.2211C2.85332 10.1479 2.76787 10.0438 2.71741 9.92195C2.66696 9.80013 2.65375 9.66609 2.67948 9.53677C2.7052 9.40745 2.76869 9.28866 2.86193 9.19543C2.95516 9.10219 3.07395 9.0387 3.20327 9.01297C3.33259 8.98725 3.46664 9.00045 3.58846 9.05091C3.71027 9.10137 3.81439 9.18682 3.88765 9.29645C3.9609 9.40608 4 9.53498 4 9.66683C4 9.84364 3.92976 10.0132 3.80474 10.1382C3.67971 10.2633 3.51014 10.3335 3.33333 10.3335ZM8.66667 10.3335H6C5.82319 10.3335 5.65362 10.2633 5.5286 10.1382C5.40357 10.0132 5.33333 9.84364 5.33333 9.66683C5.33333 9.49002 5.40357 9.32045 5.5286 9.19543C5.65362 9.0704 5.82319 9.00016 6 9.00016H8.66667C8.84348 9.00016 9.01305 9.0704 9.13807 9.19543C9.2631 9.32045 9.33333 9.49002 9.33333 9.66683C9.33333 9.84364 9.2631 10.0132 9.13807 10.1382C9.01305 10.2633 8.84348 10.3335 8.66667 10.3335ZM10.6667 6.3335H1.33333V3.66683C1.33333 3.49002 1.40357 3.32045 1.5286 3.19543C1.65362 3.0704 1.82319 3.00016 2 3.00016H2.66667V3.66683C2.66667 3.84364 2.7369 4.01321 2.86193 4.13823C2.98695 4.26326 3.15652 4.3335 3.33333 4.3335C3.51014 4.3335 3.67971 4.26326 3.80474 4.13823C3.92976 4.01321 4 3.84364 4 3.66683V3.00016H8V3.66683C8 3.84364 8.07024 4.01321 8.19526 4.13823C8.32029 4.26326 8.48986 4.3335 8.66667 4.3335C8.84348 4.3335 9.01305 4.26326 9.13807 4.13823C9.2631 4.01321 9.33333 3.84364 9.33333 3.66683V3.00016H10C10.1768 3.00016 10.3464 3.0704 10.4714 3.19543C10.5964 3.32045 10.6667 3.49002 10.6667 3.66683V6.3335Z" fill="#434E58"/>
</svg>
